<svg width="180" height="32" viewBox="0 0 180 32" xmlns="http://www.w3.org/2000/svg">
  <svg x="0" y="4" width="20" height="24" viewBox="110 96 266 318">
    <path d="M375.84 389.422C375.84 403.572 375.84 410.647 371.212 414.154C366.585 417.662 359.773 415.75 346.15 411.927L127.22 350.493C119.012 348.19 114.907 347.038 112.534 343.907C110.161 340.776 110.161 336.513 110.161 327.988V184.012C110.161 175.487 110.161 171.224 112.534 168.093C114.907 164.962 119.012 163.81 127.22 161.507L346.15 100.072C359.773 96.2495 366.585 94.338 371.212 97.8455C375.84 101.353 375.84 108.428 375.84 122.578V389.422ZM164.761 330.463L346.035 381.337V279.595L164.761 330.463ZM139.963 306.862L321.201 256L139.963 205.138V306.862ZM164.759 181.537L346.035 232.406V130.663L164.759 181.537Z" fill="#fafafa"/>
  </svg>
  <text x="28" y="22" font-family="Inter, -apple-system, BlinkMacSystemFont, 'Segoe UI', system-ui, sans-serif" font-weight="600" font-size="18" fill="#fafafa" letter-spacing="-0.01em">Polyscript</text>
</svg>
